<svg width="22" height="22" viewBox="0 0 22 22" fill="none" xmlns="http://www.w3.org/2000/svg">
<g clip-path="url(#clip0)">
<path d="M11.0012 0.199997C7.9155 0.199997 5.39307 2.72243 5.39307 5.80817C5.39307 8.8939 7.9155 11.4163 11.0012 11.4163C14.087 11.4163 16.6094 8.8939 16.6094 5.80817C16.6094 2.72243 14.087 0.199997 11.0012 0.199997Z" fill="#EEC72C"/>
<path d="M20.6259 15.8343C20.479 15.4669 20.2831 15.1241 20.0627 14.8057C18.9361 13.1404 17.1974 12.0384 15.2382 11.769C14.9933 11.7445 14.724 11.7934 14.528 11.9404C13.4994 12.6996 12.275 13.0914 11.0015 13.0914C9.72797 13.0914 8.5035 12.6996 7.47492 11.9404C7.27898 11.7934 7.00959 11.72 6.76472 11.769C4.80553 12.0384 3.04228 13.1404 1.94025 14.8057C1.71984 15.1241 1.5239 15.4914 1.377 15.8343C1.30355 15.9812 1.32801 16.1527 1.40147 16.2996C1.5974 16.6425 1.84228 16.9854 2.06269 17.2792C2.40553 17.7445 2.77289 18.1608 3.18923 18.5527C3.53208 18.8955 3.92391 19.2139 4.31578 19.5323C6.25045 20.9772 8.577 21.7363 10.977 21.7363C13.377 21.7363 15.7035 20.9771 17.6382 19.5323C18.0301 19.2384 18.4219 18.8955 18.7648 18.5527C19.1566 18.1608 19.5484 17.7445 19.8913 17.2792C20.1362 16.9608 20.3566 16.6425 20.5525 16.2996C20.6749 16.1527 20.6994 15.9812 20.6259 15.8343Z" fill="#EEC72C"/>
</g>
<defs>
<clipPath id="clip0">
<rect x="0.199829" y="0.199997" width="21.6" height="21.6" fill="white"/>
</clipPath>
</defs>
</svg>
