<svg width="40" height="40" viewBox="0 0 22 19" fill="#171819" stroke="#EEC72C" xmlns="http://www.w3.org/2000/svg" className={props.class}>
<path d="M10.8956 17.9693C10.8196 18.0148 10.7524 18.0546 10.6946 18.0885C10.6367 18.054 10.5691 18.0135 10.4927 17.9672C10.205 17.7927 9.79266 17.5362 9.29735 17.2097C8.30578 16.5561 6.98621 15.6249 5.66905 14.5127C4.34955 13.3985 3.04685 12.1145 2.07764 10.7576C1.10476 9.39548 0.5 8.00481 0.5 6.66663C0.5 3.63284 2.89268 1.19584 5.81696 1.19586L5.82096 1.19583C7.61077 1.1815 9.28978 2.10542 10.2704 3.65579L10.6905 4.32001L11.1141 3.65802C12.1021 2.11405 13.778 1.19162 15.567 1.19584C18.4861 1.21078 20.8708 3.63968 20.8858 6.66779C20.8855 8.02897 20.2795 9.43065 19.3078 10.7952C18.3389 12.1556 17.0368 13.4364 15.7177 14.5448C14.401 15.6513 13.0818 16.5741 12.0905 17.2208C11.5953 17.5438 11.1832 17.7972 10.8956 17.9693Z"/>
</svg>
