<svg width="225" height="84" viewBox="0 0 225 84" fill="none" xmlns="http://www.w3.org/2000/svg">
<path d="M43.3789 29.668L45.8672 16.5156H49.6631L45.5625 35H41.7285L38.7197 22.6348L35.7109 35H31.877L27.7764 16.5156H31.5723L34.0732 29.6426L37.1201 16.5156H40.3447L43.3789 29.668ZM66.7764 35H62.9678V27.0781H55.541V35H51.7324V16.5156H55.541V24.0059H62.9678V16.5156H66.7764V35ZM80.7793 31.1914H74.1016L72.832 35H68.7822L75.6631 16.5156H79.1924L86.1113 35H82.0615L80.7793 31.1914ZM75.1299 28.1064H79.751L77.4277 21.1875L75.1299 28.1064ZM100.229 19.6006H94.5664V35H90.7578V19.6006H85.1719V16.5156H100.229V19.6006ZM66.459 49.6006H60.7969V65H56.9883V49.6006H51.4023V46.5156H66.459V49.6006ZM83.6865 65H79.8779V57.0781H72.4512V65H68.6426V46.5156H72.4512V54.0059H79.8779V46.5156H83.6865V65ZM98.1465 56.9893H90.834V61.9404H99.416V65H87.0254V46.5156H99.3906V49.6006H90.834V54.0059H98.1465V56.9893Z" fill="white"/>
<path d="M149.102 24.3555H133.422V67H122.875V24.3555H107.406V15.8125H149.102V24.3555ZM174.625 54.3086L186.227 15.8125H197.969L180.145 67H169.141L151.387 15.8125H163.094L174.625 54.3086Z" fill="#EEC72C"/>
</svg>