<svg width="40" height="40" viewBox="0 0 23 23" fill="#171819" stroke="#EEC72C" xmlns="http://www.w3.org/2000/svg" className={props.class}>
<path d="M6.09235 19.3722V19.1199L5.88943 18.97L1.29224 15.5741C1.20327 15.5083 1.15759 15.4128 1.15759 15.3168V10.4116C1.15759 4.95118 5.70823 0.502759 11.3491 0.5C16.99 0.502757 21.5407 4.95127 21.5434 10.4091V15.314C21.5434 15.4101 21.4977 15.5056 21.4088 15.5714L16.8116 18.9673L16.6087 19.1172V19.3694V22.1724C16.6087 22.3415 16.4656 22.5 16.2583 22.5H15.5724C15.3652 22.5 15.2221 22.3415 15.2221 22.1724V21.0357C15.2221 20.4573 14.7445 20.0116 14.1835 20.0116C13.6226 20.0116 13.145 20.4573 13.145 21.0357V22.1724C13.145 22.3415 13.0019 22.5 12.7947 22.5H12.7663C12.5591 22.5 12.416 22.3415 12.416 22.1724V21.0357C12.416 20.4573 11.9384 20.0116 11.3774 20.0116H11.3208C10.7598 20.0116 10.2822 20.4573 10.2822 21.0357V22.1724C10.2822 22.3415 10.1391 22.5 9.93188 22.5H9.90353C9.69632 22.5 9.5532 22.3415 9.5532 22.1724V21.0357C9.5532 20.4573 9.07558 20.0116 8.51466 20.0116C7.95374 20.0116 7.47611 20.4573 7.47611 21.0357V22.1724C7.47611 22.3415 7.33299 22.5 7.12578 22.5H6.44268C6.23547 22.5 6.09235 22.3415 6.09235 22.1724V19.3722ZM9.63002 16.5243L9.62979 16.5247C9.24267 17.2097 9.7658 18.0073 10.5129 18.0073H12.1881C12.9354 18.0073 13.452 17.2088 13.0729 16.5275L13.071 16.5243L12.2326 15.0438C12.2325 15.0436 12.2324 15.0435 12.2323 15.0433C11.8483 14.3625 10.8531 14.3624 10.4689 15.043C10.4688 15.0433 10.4686 15.0435 10.4685 15.0438L9.63002 16.5243ZM3.43137 12.5276C3.43137 14.4 4.98891 15.8968 6.87919 15.8968C8.76914 15.8968 10.327 14.4031 10.327 12.5276C10.327 10.6553 8.76946 9.15851 6.87919 9.15851C4.98891 9.15851 3.43137 10.6553 3.43137 12.5276ZM12.3712 12.5276C12.3712 14.4 13.9287 15.8968 15.819 15.8968C17.7121 15.8968 19.2668 14.4028 19.2668 12.5276C19.2668 10.6553 17.7093 9.15851 15.819 9.15851C13.9287 9.15851 12.3712 10.6553 12.3712 12.5276Z" />
</svg>
